<svg width="270" height="410" viewBox="0 0 270 410" fill="none" xmlns="http://www.w3.org/2000/svg">
<path d="M135 286.2C132.762 286.2 131.078 285.641 129.398 283.962C98.0394 256.521 59.3984 221.802 59.3984 182.042C59.3984 147.323 80.6794 135.003 100.839 135.003C114.839 135.003 127.718 145.644 134.999 153.483C142.281 145.643 155.159 135.003 169.159 135.003C189.319 135.003 210.6 147.323 210.6 182.042C210.6 222.362 171.959 256.522 140.6 283.962C138.921 285.641 137.237 286.2 134.999 286.2H135ZM100.84 151.8C85.16 151.8 76.199 162.441 76.199 182.038C76.199 212.276 107.558 241.96 135 266.597C162.441 241.956 193.801 212.277 193.801 182.038C193.801 155.718 178.121 151.8 169.16 151.8C158.519 151.8 145.64 166.359 141.719 171.402C138.36 175.882 131.078 175.882 128.278 171.402C124.36 166.359 111.481 151.8 100.84 151.8ZM269.4 92.999V91.3193C268.841 88.5185 267.162 86.8388 264.92 85.1591C259.88 79.5575 248.682 68.3581 225.158 44.8391L182.036 1.7181H181.478C180.919 1.7181 180.919 1.15951 180.357 1.15951H179.798C179.24 1.15951 179.24 1.15951 178.677 0.600922H176.997H8.99742C4.51692 0.600922 0.599014 4.52282 0.599014 8.99932V400.999C0.599014 404.359 2.27872 407.16 5.63812 408.839C8.43892 409.96 12.3569 409.398 14.599 407.718L34.201 389.8L53.803 407.159C57.1624 409.96 61.6428 409.96 65.002 407.159L84.604 389.8L104.206 407.159C107.565 409.96 112.046 409.96 115.405 407.159L135.003 389.8L154.605 407.159C157.964 409.96 162.445 409.96 165.804 407.159L185.402 389.8L205.004 407.159C208.363 409.96 212.844 409.96 216.203 407.159L235.805 389.8L255.407 407.159C257.087 408.28 258.766 409.397 261.009 409.397C262.13 409.397 263.247 409.397 264.368 408.839C267.169 407.718 269.407 404.358 269.407 400.999L269.4 92.999ZM240.841 84.6006H185.4V29.1596L240.841 84.6006ZM241.4 372.441C238.04 369.64 233.56 369.64 230.201 372.441L210.603 389.8L191.001 372.441C187.641 369.64 183.161 369.64 179.802 372.441L160.2 389.8L140.602 372.441C137.242 369.64 132.762 369.64 129.403 372.441L109.801 389.8L90.1986 372.441C86.8392 369.64 82.3588 369.64 78.9996 372.441L59.3976 389.8L39.7996 372.441C38.1199 370.761 36.4402 370.202 34.198 370.202C31.9597 370.202 30.2761 370.761 28.5964 372.441L17.3974 382.519V17.3986H168.597L168.601 93.0006C168.601 97.4811 172.523 101.399 177 101.399H252.602V382.519L241.4 372.441ZM227.4 333.8C227.4 338.28 223.478 342.198 219.001 342.198H51.0012C46.5207 342.198 42.6028 338.276 42.6028 333.8C42.6028 329.319 46.5247 325.401 51.0012 325.401H219.001C223.482 325.397 227.4 329.319 227.4 333.8Z" fill="black"/>
</svg>
