<svg width="490" height="350" viewBox="0 0 490 350" fill="none" xmlns="http://www.w3.org/2000/svg">
<path d="M339.5 140H10.5C5.25 140 0 145.25 0 150.5V199.5C0 204.75 5.25 210 10.5 210H339.5C344.75 210 350 204.75 350 199.5V150.5C350 145.25 344.75 140 339.5 140Z" fill="black"/>
<path d="M479.5 140H430.5C425.25 140 420 145.25 420 150.5V199.5C420 204.75 425.25 210 430.5 210H479.5C484.75 210 490 204.75 490 199.5V150.5C490 145.25 484.75 140 479.5 140Z" fill="black"/>
<path d="M339.5 280H10.5C5.25 280 0 285.25 0 290.5V339.5C0 344.75 5.25 350 10.5 350H339.5C344.75 350 350 344.75 350 339.5V290.5C350 285.25 344.75 280 339.5 280Z" fill="black"/>
<path d="M479.5 280H430.5C425.25 280 420 285.25 420 290.5V339.5C420 344.75 425.25 350 430.5 350H479.5C484.75 350 490 344.75 490 339.5V290.5C490 285.25 484.75 280 479.5 280Z" fill="black"/>
<path d="M339.5 0H10.5C5.25 0 0 5.25 0 10.5V59.5C0 64.75 5.25 70 10.5 70H339.5C344.75 70 350 64.75 350 59.5V10.5C350 5.25 344.75 0 339.5 0Z" fill="black"/>
<path d="M479.5 0H430.5C425.25 0 420 5.25 420 10.5V59.5C420 64.75 425.25 70 430.5 70H479.5C484.75 70 490 64.75 490 59.5V10.5C490 5.25 484.75 0 479.5 0Z" fill="black"/>
</svg>
