<svg width="388" height="388" viewBox="0 0 388 388" fill="none" xmlns="http://www.w3.org/2000/svg">
<path d="M118.63 118.63C98.638 138.618 87.407 165.732 87.407 194.001C87.407 222.27 98.637 249.384 118.63 269.376C138.618 289.364 165.732 300.595 194.001 300.595C222.27 300.595 249.384 289.365 269.372 269.376C289.364 249.384 300.595 222.271 300.595 194.001C300.595 165.731 289.365 138.618 269.372 118.63C249.368 98.665 222.263 87.458 194.001 87.458C165.739 87.458 138.634 98.665 118.63 118.63ZM249.58 249.58L249.576 249.576C234.842 264.299 214.861 272.568 194.029 272.56C173.201 272.552 153.224 264.275 138.498 249.54C123.771 234.81 115.498 214.833 115.498 194.001C115.498 173.169 123.771 153.192 138.498 138.462C153.225 123.728 173.201 115.45 194.029 115.442C214.861 115.434 234.841 123.704 249.576 138.426C264.299 153.172 272.568 173.16 272.568 194C272.568 214.84 264.299 234.828 249.576 249.574L249.58 249.58ZM180.002 50.3V14.245C180.002 6.51449 186.271 0.244995 194.002 0.244995C201.732 0.244995 208.002 6.51449 208.002 14.245V50.3C208.002 58.0305 201.732 64.3 194.002 64.3C186.271 64.3 180.002 58.0305 180.002 50.3ZM253.721 62.55L271.741 31.323V31.3191C275.608 24.6277 284.171 22.3347 290.866 26.2019C297.561 30.0652 299.854 38.6239 295.995 45.3189L277.975 76.5489C274.108 83.2403 265.545 85.5333 258.85 81.6661C252.155 77.8028 249.858 69.2441 253.721 62.5491V62.55ZM306.319 129.144H306.315C304.46 125.929 303.956 122.105 304.917 118.519C305.878 114.929 308.225 111.874 311.444 110.019L342.671 91.988V91.9841C345.886 90.1247 349.71 89.6208 353.3 90.5818C356.886 91.5427 359.948 93.8904 361.804 97.1091C363.663 100.328 364.163 104.148 363.202 107.738C362.237 111.324 359.89 114.383 356.671 116.238L325.444 134.269V134.273C318.745 138.132 310.186 135.839 306.315 129.144L306.319 129.144ZM387.76 193.976C387.764 197.691 386.287 201.249 383.662 203.878C381.037 206.503 377.475 207.976 373.76 207.976H337.705C329.974 207.976 323.705 201.707 323.705 193.976C323.705 186.242 329.974 179.976 337.705 179.976H373.76C377.475 179.972 381.037 181.449 383.662 184.074C386.287 186.699 387.764 190.261 387.76 193.976ZM361.822 290.855C357.955 297.55 349.396 299.843 342.697 295.984L311.47 277.964C308.255 276.104 305.907 273.05 304.947 269.46C303.982 265.874 304.486 262.054 306.341 258.835C310.208 252.14 318.771 249.843 325.47 253.71L356.697 271.73C359.916 273.586 362.264 276.644 363.224 280.23C364.185 283.816 363.681 287.64 361.822 290.855H361.822ZM296.049 342.66C299.908 349.355 297.615 357.914 290.92 361.781C284.225 365.644 275.662 363.351 271.795 356.66L253.764 325.433C251.905 322.214 251.401 318.394 252.362 314.804C253.323 311.214 255.67 308.155 258.885 306.3C262.104 304.441 265.928 303.941 269.514 304.902C273.104 305.863 276.163 308.214 278.018 311.433L296.049 342.66ZM208.041 337.711L208.057 373.766V373.762C208.057 381.496 201.787 387.762 194.057 387.762C186.326 387.762 180.057 381.496 180.057 373.762L180.041 337.707V337.711C180.041 329.976 186.31 323.711 194.041 323.711C201.775 323.711 208.041 329.976 208.041 337.711V337.711ZM134.322 325.484L116.306 356.711C112.435 363.406 103.876 365.695 97.181 361.832C90.4857 357.969 88.1888 349.41 92.0521 342.711L110.072 311.484H110.068C113.939 304.792 122.498 302.499 129.193 306.363C135.888 310.23 138.185 318.789 134.322 325.484H134.322ZM81.689 258.89C83.5484 262.101 84.0562 265.921 83.1031 269.511C82.1461 273.097 79.8023 276.159 76.5875 278.019L45.3725 296.062C38.685 299.937 30.1225 297.655 26.2475 290.964C22.3725 284.272 24.6577 275.71 31.3452 271.835L62.5562 253.788H62.5601C65.7671 251.917 69.5953 251.401 73.1851 252.358C76.7749 253.315 79.8374 255.667 81.689 258.889L81.689 258.89ZM50.298 208.07L14.243 208.085C6.51248 208.085 0.242981 201.816 0.242981 194.085C0.242981 186.355 6.51248 180.085 14.243 180.085L50.298 180.07C58.0285 180.07 64.298 186.339 64.298 194.07C64.298 201.804 58.0285 208.07 50.298 208.07ZM26.15 97.2098C28.0016 93.9871 31.0602 91.6356 34.65 90.6707C38.2398 89.7098 42.0641 90.2176 45.279 92.0848L76.506 110.093V110.089C83.1974 113.956 85.4904 122.519 81.6271 129.214C77.7638 135.909 69.2011 138.206 62.5061 134.343L31.2791 116.335C24.5838 112.468 22.2908 103.909 26.1502 97.2098H26.15ZM91.912 45.3778C88.0526 38.6825 90.3495 30.1238 97.0448 26.2608C103.74 22.3936 112.299 24.6866 116.166 31.378L134.201 62.593C138.06 69.2883 135.767 77.851 129.072 81.714C122.377 85.5773 113.814 83.2843 109.947 76.5929L91.912 45.3778Z" fill="black"/>
</svg>
